{"title":"Perfume.The.Story.Of.A.Murderer.2006.720p.BRRip.x264.AAC.mp4-Zen","uid":6467058,"size":1358336710,"categoryP":"video","categoryS":"hd___movies","magnet":"?xt=urn:btih:ce195493708317095081223b8c100a6ad4bbfdf1&amp;dn=Perfume.The.Story.Of.A.Murderer.2006.720p.BRRip.x264.AAC.mp4-Zen&amp;tr=udp%3A%2F%2Ftracker.openbittorrent.com%3A80&amp;tr=udp%3A%2F%2Fopen.demonii.com%3A1337&amp;tr=udp%3A%2F%2Ftracker.coppersurfer.tk%3A6969&amp;tr=udp%3A%2F%2Fexodus.desync.com%3A6969","seeders":1,"leechers":0,"uploader":"Zen_Bud","files":-1,"time":1307996841,"description":"        Perfume.The.Story.Of.A.Murderer.2006.720p.BRRip.x264.AAC.mp4-Zen_Bud\n\n\nFormat                           : MPEG-4\nFile size                        : 1.26 GiB\nDuration                         : 2h 27mn\nOverall bit rate                 : 1 226 Kbps\n\n\n\nVideo\n\nFormat                           : AVC\nFormat profile                   : &lt;a class=&quot;__cf_email__&quot; href=&quot;/cdn-cgi/l/email-protection&quot; data-cfemail=&quot;1c517d75725c502f322d&quot;&gt;[email&amp;#160;protected]&lt;/a&gt;&lt;script cf-hash='f9e31' type=&quot;text/javascript&quot;&gt;\n/* &lt;![CDATA[ */!function(){try{var t=&quot;currentScript&quot;in document?document.currentScript:function(){for(var t=document.getElementsByTagName(&quot;script&quot;),e=t.length;e--;)if(t[e].getAttribute(&quot;cf-hash&quot;))return t[e]}();if(t&amp;&amp;t.previousSibling){var e,r,n,i,c=t.previousSibling,a=c.getAttribute(&quot;data-cfemail&quot;);if(a){for(e=&quot;&quot;,r=parseInt(a.substr(0,2),16),n=2;a.length-n;n+=2)i=parseInt(a.substr(n,2),16)^r,e+=String.fromCharCode(i);e=document.createTextNode(e),c.parentNode.replaceChild(e,c)}}}catch(u){}}();/* ]]&gt; */&lt;/script&gt;\nFormat settings, CABAC           : Yes\nFormat settings, ReFrames        : 4 frames\nDuration                         : 2h 27mn\nBit rate                         : 940 Kbps\nWidth                            : 1 280 pixels\nHeight                           : 544 pixels\nDisplay aspect ratio             : 2.35:1\nStream size                      : 953 MiB (74%)\nWriting library                  : x264 core 115\nEncoding settings                : cabac=1 / ref=3 / deblock=1:0:0 / analyse=0x1:0x111 \n\nAudio\n\nFormat                           : AAC\nDuration                         : 2h 27mn\nBit rate                         : 319 Kbp\nChannel(s)                       : 2 channels\nChannel positions                : Front: L R\nSampling rate                    : 48.0 KHz\nStream size                      : 337 MiB (26%)\nLanguage                         : English\n\n\nSubtitel                         : Svenska (.srt)\n\n\n=============================================================================\n\nJean-Baptiste Grenouille, born with a superior olfactory sense, creates the \nworld's finest perfume. His work, however, takes a dark turn as he searches \nfor the ultimate scent. \n\n=============================================================================\n &lt;a href=&quot;\nhttp://img200.imageshack.us/i/vlcsnap2011061320h14m29.png/&quot; rel=&quot;nofollow&quot; target=&quot;_NEW&quot;&gt;\nhttp://img200.imageshack.us/i/vlcsnap2011061320h14m29.png/&lt;/a&gt;\n &lt;a href=&quot;\nhttp://img52.imageshack.us/i/vlcsnap2011061320h14m51.png/&quot; rel=&quot;nofollow&quot; target=&quot;_NEW&quot;&gt;\nhttp://img52.imageshack.us/i/vlcsnap2011061320h14m51.png/&lt;/a&gt;\n &lt;a href=&quot;\nhttp://img27.imageshack.us/i/vlcsnap2011061320h15m02.png/&quot; rel=&quot;nofollow&quot; target=&quot;_NEW&quot;&gt;\nhttp://img27.imageshack.us/i/vlcsnap2011061320h15m02.png/&lt;/a&gt;\n &lt;a href=&quot;\nhttp://img225.imageshack.us/i/vlcsnap2011061320h16m20.png/&quot; rel=&quot;nofollow&quot; target=&quot;_NEW&quot;&gt;\nhttp://img225.imageshack.us/i/vlcsnap2011061320h16m20.png/&lt;/a&gt;\n &lt;a href=&quot;\nhttp://img232.imageshack.us/i/vlcsnap2011061320h16m36.png/&quot; rel=&quot;nofollow&quot; target=&quot;_NEW&quot;&gt;\nhttp://img232.imageshack.us/i/vlcsnap2011061320h16m36.png/&lt;/a&gt;\n","torrent":{"xt":"urn:btih:ce195493708317095081223b8c100a6ad4bbfdf1","amp;dn":"Perfume.The.Story.Of.A.Murderer.2006.720p.BRRip.x264.AAC.mp4-Zen","amp;tr":["udp%3A%2F%2Ftracker.openbittorrent.com%3A80","udp%3A%2F%2Fopen.demonii.com%3A1337","udp%3A%2F%2Ftracker.coppersurfer.tk%3A6969","udp%3A%2F%2Fexodus.desync.com%3A6969"],"infoHash":"ce195493708317095081223b8c100a6ad4bbfdf1","infoHashBuffer":{"type":"Buffer","data":[206,25,84,147,112,131,23,9,80,129,34,59,140,16,10,106,212,187,253,241]},"announce":[],"urlList":[]}}